<?xml version="1.0" encoding="UTF-8" standalone="no"?>
<svg
   xmlns:dc="http://purl.org/dc/elements/1.1/"
   xmlns:cc="http://creativecommons.org/ns#"
   xmlns:rdf="http://www.w3.org/1999/02/22-rdf-syntax-ns#"
   xmlns:svg="http://www.w3.org/2000/svg"
   xmlns="http://www.w3.org/2000/svg"
   viewBox="0 0 2560 533.46936"
   height="533.46936"
   width="2560"
   xml:space="preserve"
   id="svg2"
   version="1.1"><metadata
     id="metadata8"><rdf:RDF><cc:Work
         rdf:about=""><dc:format>image/svg+xml</dc:format><dc:type
           rdf:resource="http://purl.org/dc/dcmitype/StillImage" /><dc:title></dc:title></cc:Work></rdf:RDF></metadata><defs
     id="defs6" /><g
     transform="matrix(1.3333333,0,0,-1.3333333,0,533.46933)"
     id="g10"><path
       id="path12"
       style="fill:#63bca0;fill-opacity:1;fill-rule:nonzero;stroke:none"
       d="M 897,107.584 H 340 v 28.877 h 557 z" /><path
       id="path14"
       style="fill:#63bca0;fill-opacity:1;fill-rule:nonzero;stroke:none"
       d="m 0,257.584 h 411 v 28.877 H 0 Z" /><path
       id="path16"
       style="fill:#63bca0;fill-opacity:1;fill-rule:nonzero;stroke:none"
       d="M 486,180.584 H 262 v 28.877 h 224 z" /><path
       id="path18"
       style="fill:#63bca0;fill-opacity:1;fill-rule:nonzero;stroke:none"
       d="m 0,180.584 h 229 v 28.877 H 0 Z" /><path
       id="path20"
       style="fill:#63bca0;fill-opacity:1;fill-rule:nonzero;stroke:none"
       d="m 200.561,209.102 h 28.878 v -206 h -28.878 z" /><path
       id="path22"
       style="fill:#63bca0;fill-opacity:1;fill-rule:nonzero;stroke:none"
       d="m 261.561,209.102 h 28.878 v -72 h -28.878 z" /><path
       id="path24"
       style="fill:#63bca0;fill-opacity:1;fill-rule:nonzero;stroke:none"
       d="m 318.561,329.102 h 28.877 v 71 h -28.877 z" /><path
       id="path26"
       style="fill:#63bca0;fill-opacity:1;fill-rule:nonzero;stroke:none"
       d="m 262.561,77.022 h 28.878 V 3.102 h -28.878 z" /><path
       id="path28"
       style="fill:#63bca0;fill-opacity:1;fill-rule:nonzero;stroke:none"
       d="m 416.561,77.022 h 28.878 V 3.102 h -28.878 z" /><path
       id="path30"
       style="fill:#63bca0;fill-opacity:1;fill-rule:nonzero;stroke:none"
       d="m 339.561,132.022 h 28.878 v -73.92 h -28.878 z" /><path
       id="path32"
       style="fill:#63bca0;fill-opacity:1;fill-rule:nonzero;stroke:none"
       d="m 78.561,137.102 h 28.878 v -52 H 78.561 Z" /><path
       id="path34"
       style="fill:#63bca0;fill-opacity:1;fill-rule:nonzero;stroke:none"
       d="m 136.561,85.102 h 28.878 v -82 h -28.878 z" /><path
       id="path36"
       style="fill:#63bca0;fill-opacity:1;fill-rule:nonzero;stroke:none"
       d="m 551.561,77.022 h 28.878 V 3.102 h -28.878 z" /><path
       id="path38"
       style="fill:#63bca0;fill-opacity:1;fill-rule:nonzero;stroke:none"
       d="m 683.561,77.022 h 28.878 V 3.102 h -28.878 z" /><path
       id="path40"
       style="fill:#63bca0;fill-opacity:1;fill-rule:nonzero;stroke:none"
       d="M 578,48.584 H 417 v 28.877 h 161 z" /><path
       id="path42"
       style="fill:#63bca0;fill-opacity:1;fill-rule:nonzero;stroke:none"
       d="M 712,1.584 H 552 v 28.877 h 160 z" /><path
       id="path44"
       style="fill:#63bca0;fill-opacity:1;fill-rule:nonzero;stroke:none"
       d="m 868.561,77.022 h 28.878 V 3.102 h -28.878 z" /><path
       id="path46"
       style="fill:#63bca0;fill-opacity:1;fill-rule:nonzero;stroke:none"
       d="m 1000.562,77.022 h 28.877 V 3.102 h -28.877 z" /><path
       id="path48"
       style="fill:#63bca0;fill-opacity:1;fill-rule:nonzero;stroke:none"
       d="m 934.561,206.102 h 28.877 v -129 h -28.877 z" /><path
       id="path50"
       style="fill:#63bca0;fill-opacity:1;fill-rule:nonzero;stroke:none"
       d="m 610.561,243.103 h 28.878 v 157 h -28.878 z" /><path
       id="path52"
       style="fill:#63bca0;fill-opacity:1;fill-rule:nonzero;stroke:none"
       d="m 1258.562,243.103 h 28.876 v 157 h -28.876 z" /><path
       id="path54"
       style="fill:#63bca0;fill-opacity:1;fill-rule:nonzero;stroke:none"
       d="M 1029,1.584 H 869 v 28.877 h 160 z" /><path
       id="path56"
       style="fill:#63bca0;fill-opacity:1;fill-rule:nonzero;stroke:none"
       d="M 1029,369.584 H 869 v 28.877 h 160 z" /><path
       id="path58"
       style="fill:#63bca0;fill-opacity:1;fill-rule:nonzero;stroke:none"
       d="m 0,314.584 h 137 v 28.877 H 0 Z" /><path
       id="path60"
       style="fill:#63bca0;fill-opacity:1;fill-rule:nonzero;stroke:none"
       d="M 347,314.584 H 187 v 28.877 h 160 z" /><path
       id="path62"
       style="fill:#63bca0;fill-opacity:1;fill-rule:nonzero;stroke:none"
       d="M 897,48.584 H 684 v 28.877 h 213 z" /><path
       id="path64"
       style="fill:#63bca0;fill-opacity:1;fill-rule:nonzero;stroke:none"
       d="m 1478.438,79.022 h -28.877 V 1.102 h 28.877 z" /><path
       id="path66"
       style="fill:#63bca0;fill-opacity:1;fill-rule:nonzero;stroke:none"
       d="m 1343.438,79.022 h -28.877 V 5.102 h 28.877 z" /><path
       id="path68"
       style="fill:#63bca0;fill-opacity:1;fill-rule:nonzero;stroke:none"
       d="m 1211.438,79.022 h -28.877 V 5.102 h 28.877 z" /><path
       id="path70"
       style="fill:#63bca0;fill-opacity:1;fill-rule:nonzero;stroke:none"
       d="m 1317,50.584 h 161 v 28.877 h -161 z" /><path
       id="path72"
       style="fill:#63bca0;fill-opacity:1;fill-rule:nonzero;stroke:none"
       d="m 1183,2.584 h 160 v 28.877 h -160 z" /><path
       id="path74"
       style="fill:#63bca0;fill-opacity:1;fill-rule:nonzero;stroke:none"
       d="m 1001,50.584 h 210 v 28.877 h -210 z" /><path
       id="path76"
       style="fill:#63bca0;fill-opacity:1;fill-rule:nonzero;stroke:none"
       d="M 369,48.584 H 262 v 28.877 h 107 z" /><path
       id="path78"
       style="fill:#63bca0;fill-opacity:1;fill-rule:nonzero;stroke:none"
       d="M 165,77.584 H 79 v 28.877 h 86 z" /><path
       id="path80"
       style="fill:#63bca0;fill-opacity:1;fill-rule:nonzero;stroke:none"
       d="m 0,108.584 h 80 v 28.877 H 0 Z" /><path
       id="path82"
       style="fill:#63bca0;fill-opacity:1;fill-rule:nonzero;stroke:none"
       d="M 0,1.584 H 165 V 30.461 H 0 Z" /><path
       id="path84"
       style="fill:#63bca0;fill-opacity:1;fill-rule:nonzero;stroke:none"
       d="M 897.29,176.222 H 548.693 v 29.91 H 897.29 Z" /><path
       id="path86"
       style="fill:#63bca0;fill-opacity:1;fill-rule:nonzero;stroke:none"
       d="M 1221,243.514 H 677 v 29.91 h 544 z" /><path
       id="path88"
       style="fill:#63bca0;fill-opacity:1;fill-rule:nonzero;stroke:none"
       d="M 677,334.461 H 897 V 305.584 H 677 Z" /><path
       id="path90"
       style="fill:#63bca0;fill-opacity:1;fill-rule:nonzero;stroke:none"
       d="m 677.061,305.522 h 28.878 v 94.58 h -28.878 z" /><path
       id="path92"
       style="fill:#63bca0;fill-opacity:1;fill-rule:nonzero;stroke:none"
       d="m 868.061,305.522 h 28.878 v 94.58 h -28.878 z" /><path
       id="path94"
       style="fill:#63bca0;fill-opacity:1;fill-rule:nonzero;stroke:none"
       d="m 1001,334.461 h 220 v -28.877 h -220 z" /><path
       id="path96"
       style="fill:#63bca0;fill-opacity:1;fill-rule:nonzero;stroke:none"
       d="m 1001.062,305.522 h 28.876 v 94.58 h -28.876 z" /><path
       id="path98"
       style="fill:#63bca0;fill-opacity:1;fill-rule:nonzero;stroke:none"
       d="m 1192.062,305.522 h 28.876 v 94.58 h -28.876 z" /><path
       id="path100"
       style="fill:#63bca0;fill-opacity:1;fill-rule:nonzero;stroke:none"
       d="m 549.061,187.522 h 28.877 v 212.58 h -28.877 z" /><path
       id="path102"
       style="fill:#63bca0;fill-opacity:1;fill-rule:nonzero;stroke:none"
       d="m 457.061,187.522 h 28.877 v 212.58 h -28.877 z" /><path
       id="path104"
       style="fill:#63bca0;fill-opacity:1;fill-rule:nonzero;stroke:none"
       d="m 382.061,258.102 h 28.878 v 142 h -28.878 z" /><path
       id="path106"
       style="fill:#63bca0;fill-opacity:1;fill-rule:nonzero;stroke:none"
       d="m 868.561,206.022 h 28.878 v -73.92 h -28.878 z" /><path
       id="path108"
       style="fill:#63bca0;fill-opacity:1;fill-rule:nonzero;stroke:none"
       d="m 1006.438,108.584 h 557 v 28.877 h -557 z" /><path
       id="path110"
       style="fill:#63bca0;fill-opacity:1;fill-rule:nonzero;stroke:none"
       d="m 1492.438,258.584 h 427.561 v 28.877 h -427.561 z" /><path
       id="path112"
       style="fill:#63bca0;fill-opacity:1;fill-rule:nonzero;stroke:none"
       d="m 1417.438,181.584 h 224 v 28.877 h -224 z" /><path
       id="path114"
       style="fill:#63bca0;fill-opacity:1;fill-rule:nonzero;stroke:none"
       d="m 1673.438,181.584 h 246.561 v 28.877 h -246.561 z" /><path
       id="path116"
       style="fill:#63bca0;fill-opacity:1;fill-rule:nonzero;stroke:none"
       d="M 1702.878,207.022 H 1674 V 2.102 h 28.878 z" /><path
       id="path118"
       style="fill:#63bca0;fill-opacity:1;fill-rule:nonzero;stroke:none"
       d="M 1641.878,210.102 H 1613 v -73 h 28.878 z" /><path
       id="path120"
       style="fill:#63bca0;fill-opacity:1;fill-rule:nonzero;stroke:none"
       d="M 1641.878,78.022 H 1613 V 1.102 h 28.878 z" /><path
       id="path122"
       style="fill:#63bca0;fill-opacity:1;fill-rule:nonzero;stroke:none"
       d="M 1563.878,133.022 H 1535 v -73.92 h 28.878 z" /><path
       id="path124"
       style="fill:#63bca0;fill-opacity:1;fill-rule:nonzero;stroke:none"
       d="m 1534.438,49.584 h 107 v 28.877 h -107 z" /><path
       id="path126"
       style="fill:#63bca0;fill-opacity:1;fill-rule:nonzero;stroke:none"
       d="m 1006.148,177.222 h 348.597 v 29.91 h -348.597 z" /><path
       id="path128"
       style="fill:#63bca0;fill-opacity:1;fill-rule:nonzero;stroke:none"
       d="m 1325.5,188.522 h 28.877 v 211.58 H 1325.5 Z" /><path
       id="path130"
       style="fill:#63bca0;fill-opacity:1;fill-rule:nonzero;stroke:none"
       d="m 1417.5,188.522 h 28.878 v 211.58 H 1417.5 Z" /><path
       id="path132"
       style="fill:#63bca0;fill-opacity:1;fill-rule:nonzero;stroke:none"
       d="m 1492.5,259.102 h 28.878 v 141 H 1492.5 Z" /><path
       id="path134"
       style="fill:#63bca0;fill-opacity:1;fill-rule:nonzero;stroke:none"
       d="M 1034.878,207.022 H 1006 v -73.92 h 28.878 z" /><path
       id="path136"
       style="fill:#63bca0;fill-opacity:1;fill-rule:nonzero;stroke:none"
       d="M 1824.878,137.102 H 1796 v -52 h 28.878 z" /><path
       id="path138"
       style="fill:#63bca0;fill-opacity:1;fill-rule:nonzero;stroke:none"
       d="M 1766.878,85.102 H 1738 v -82 h 28.878 z" /><path
       id="path140"
       style="fill:#63bca0;fill-opacity:1;fill-rule:nonzero;stroke:none"
       d="m 1738.438,77.584 h 86 v 28.877 h -86 z" /><path
       id="path142"
       style="fill:#63bca0;fill-opacity:1;fill-rule:nonzero;stroke:none"
       d="m 1796,108.583 h 123.999 v 28.878 H 1796 Z" /><path
       id="path144"
       style="fill:#63bca0;fill-opacity:1;fill-rule:nonzero;stroke:none"
       d="m 1738.438,1.583 h 181.561 v 28.878 h -181.561 z" /><path
       id="path146"
       style="fill:#63bca0;fill-opacity:1;fill-rule:nonzero;stroke:none"
       d="m 1557.5,330.602 h 28.877 v 69.5 H 1557.5 Z" /><path
       id="path148"
       style="fill:#63bca0;fill-opacity:1;fill-rule:nonzero;stroke:none"
       d="m 1767.938,316.084 h 152.061 v 28.877 h -152.061 z" /><path
       id="path150"
       style="fill:#63bca0;fill-opacity:1;fill-rule:nonzero;stroke:none"
       d="m 1557.938,316.084 h 160 v 28.877 h -160 z" /></g></svg>