<?xml version="1.0" encoding="UTF-8" standalone="no"?>
<svg
   xmlns:dc="http://purl.org/dc/elements/1.1/"
   xmlns:cc="http://creativecommons.org/ns#"
   xmlns:rdf="http://www.w3.org/1999/02/22-rdf-syntax-ns#"
   xmlns:svg="http://www.w3.org/2000/svg"
   xmlns="http://www.w3.org/2000/svg"
   id="svg2"
   version="1.1"
   xml:space="preserve"
   width="298.88412"
   height="135.03171"
   viewBox="0 0 298.88412 135.03171"><metadata
     id="metadata8"><rdf:RDF><cc:Work
         rdf:about=""><dc:format>image/svg+xml</dc:format><dc:type
           rdf:resource="http://purl.org/dc/dcmitype/StillImage" /><dc:title></dc:title></cc:Work></rdf:RDF></metadata><defs
     id="defs6"><clipPath
       clipPathUnits="userSpaceOnUse"
       id="clipPath430"><path
         d="m 0,0 419.528,0 0,595.275 L 0,595.275 0,0 Z"
         id="path432" /></clipPath></defs><g
     id="g10"
     transform="matrix(1.25,0,0,-1.25,-923.37052,332.49911)"><g
       id="g426"
       transform="translate(642.11331,-18.292503)"><g
         transform="translate(102.1709,339.613)"
         id="g434"><path
           style="fill:none;stroke:#ed1b28;stroke-width:1.44500005;stroke-linecap:round;stroke-linejoin:miter;stroke-miterlimit:10;stroke-dasharray:none;stroke-opacity:1"
           d="m 211.57,-56.054 0,-11.588 c 0,-3.608 2.925,-6.533 6.533,-6.533 l 8.161,0 c 3.608,0 6.533,-2.924 6.533,-6.532 l 0,-31.946 c 0,-3.619 -2.943,-6.549 -6.563,-6.532 l -21.571,0.099 c -3.619,0.017 -6.563,-2.913 -6.563,-6.532 l 0,-10.549 c 0,-3.608 -2.924,-6.533 -6.532,-6.533 l -21.408,0 c -3.607,0 -6.532,-2.924 -6.532,-6.532 l 0,-6.859 c 0,-3.608 -2.925,-6.533 -6.533,-6.533 l -161.95,0"
           id="path436" /></g></g></g></svg>